<svg width="47" height="173" viewBox="0 0 47 173" fill="none" xmlns="http://www.w3.org/2000/svg">
    <path d="M41.24 37.9299H5.92C4.59392 37.9299 3.32215 38.4567 2.38447 39.3944C1.44679 40.3321 0.919998 41.6038 0.919998 42.9299V167.54C0.919998 168.866 1.44679 170.138 2.38447 171.075C3.32215 172.013 4.59392 172.54 5.92 172.54H41.24C42.5661 172.54 43.8379 172.013 44.7755 171.075C45.7132 170.138 46.24 168.866 46.24 167.54V42.9299C46.24 41.6038 45.7132 40.3321 44.7755 39.3944C43.8379 38.4567 42.5661 37.9299 41.24 37.9299Z" fill="#DD598D"/>
    <mask id="mask0_18_158" style="mask-type:luminance" maskUnits="userSpaceOnUse" x="0" y="37" width="47" height="136">
        <path d="M41.24 37.9299H5.92C4.59392 37.9299 3.32215 38.4567 2.38447 39.3944C1.44679 40.3321 0.919998 41.6038 0.919998 42.9299V167.54C0.919998 168.866 1.44679 170.138 2.38447 171.075C3.32215 172.013 4.59392 172.54 5.92 172.54H41.24C42.5661 172.54 43.8379 172.013 44.7755 171.075C45.7132 170.138 46.24 168.866 46.24 167.54V42.9299C46.24 41.6038 45.7132 40.3321 44.7755 39.3944C43.8379 38.4567 42.5661 37.9299 41.24 37.9299Z" fill="white"/>
    </mask>
    <g mask="url(#mask0_18_158)">
        <path d="M-4.67 85.34C-3.67 80.93 0.329998 77.68 4.6 76.16C8.87 74.64 13.5 74.57 18 74.39C22.5 74.21 27.19 73.91 31.31 72.01C35.02 70.29 38.03 67.4 41.31 64.93C44.59 62.46 48.38 60.3 52.47 60.47" stroke="#08151C" stroke-linecap="round" stroke-linejoin="round"/>
        <path d="M-8.26 79.2099C-4 69.5099 4.34 60.9299 14.81 59.3599C19.59 58.6499 24.62 59.3599 29.16 57.7399C33.7 56.1199 37.16 52.2299 40.65 48.8499C44.14 45.4699 48.49 42.2599 53.37 42.4199" stroke="#08151C" stroke-linecap="round" stroke-linejoin="round"/>
        <path d="M-7.34 157.86C-5.82147 153.891 -3.30405 150.382 -0.0314636 147.672C3.24112 144.962 7.15801 143.142 11.34 142.39C16.7 141.49 22.34 142.39 27.52 140.68C32.7 138.97 36.8 134.68 40.89 130.87C44.98 127.06 49.89 123.44 55.42 123.44" stroke="#08151C" stroke-linecap="round" stroke-linejoin="round"/>
        <path d="M-6.34 168.05C-4.80535 164.771 -2.37379 161.992 0.673508 160.037C3.72081 158.082 7.25937 157.029 10.88 157C15.79 157 20.63 159 25.5 158.33C31.23 157.56 35.81 153.33 40.11 149.51C44.41 145.69 49.33 141.69 55.11 141.59" stroke="#08151C" stroke-linecap="round" stroke-linejoin="round"/>
    </g>
    <path d="M40.24 21.9299H6.92V37.9199H40.24V21.9299Z" fill="#102838"/>
    <path d="M34.23 0.609985H12.91V21.93H34.23V0.609985Z" fill="#194A7C"/>
    <path d="M27.7171 121.834C36.886 119.548 42.4656 110.262 40.1796 101.093C37.8935 91.9242 28.6074 86.3446 19.4385 88.6306C10.2696 90.9167 4.69 100.203 6.97606 109.372C9.26212 118.541 18.5482 124.12 27.7171 121.834Z" fill="#F9F6F3"/>
    <path d="M25.9026 117.9C32.7426 116.794 37.3914 110.353 36.2859 103.513C35.1804 96.6733 28.7394 92.0245 21.8994 93.13C15.0594 94.2354 10.4107 100.677 11.5161 107.516C12.6216 114.356 19.0626 119.005 25.9026 117.9Z" stroke="#08151C" stroke-width="1.00285" stroke-linecap="round" stroke-linejoin="round"/>
</svg>
