<svg width="81" height="177" viewBox="0 0 81 177" fill="none" xmlns="http://www.w3.org/2000/svg">
    <path d="M30.66 35.34H50.5C58.4777 35.34 66.1287 38.5091 71.7698 44.1502C77.4109 49.7913 80.58 57.4423 80.58 65.42V162.27C80.58 165.959 79.1145 169.497 76.5059 172.106C73.8972 174.714 70.3592 176.18 66.67 176.18H14.48C10.7908 176.18 7.25278 174.714 4.64415 172.106C2.03552 169.497 0.570001 165.959 0.570001 162.27V65.43C0.568687 61.4781 1.34609 57.5647 2.85779 53.9135C4.36949 50.2622 6.58585 46.9446 9.38023 44.1502C12.1746 41.3558 15.4922 39.1395 19.1435 37.6278C22.7948 36.1161 26.7082 35.3387 30.66 35.34Z" fill="#FF88B9"/>
    <path d="M52.61 0.959961H28.53V35.45H52.61V0.959961Z" fill="#194A7C"/>
    <path d="M73.45 69.23H7.7V153.15H73.45V69.23Z" fill="#DD598D"/>
    <path d="M39.19 137.56C38.91 133.19 41.56 129.18 44.55 125.99C47.54 122.8 51.06 119.99 53.22 116.19C55.38 112.39 56.01 107.87 57.35 103.68C58.69 99.49 61.2 95.22 65.35 93.79C60.51 101.79 65.14 112.51 62.18 121.41C59.64 129.08 50.93 134.14 39.19 137.56Z" fill="#F9F6F3"/>
    <path d="M41 124.46C39.87 120.46 36.13 117.94 32.53 115.96C28.93 113.98 24.99 112.09 22.81 108.61C21.17 106 20.75 102.82 19.58 99.97C18.41 97.12 15.97 94.33 12.89 94.46C16.28 91.58 21.7 93 25 96C28.3 99 30.37 103.08 33.32 106.42C35.1 108.42 37.22 110.18 38.74 112.42C40.26 114.66 41.15 117.56 41 124.46Z" fill="#F9F6F3"/>
    <path d="M37.92 96.9999C43.48 112.19 42.59 129.33 37.07 144.53" stroke="#08151C" stroke-linecap="round" stroke-linejoin="round"/>
    <path d="M42.51 105.85C41.9223 106.265 41.2052 106.454 40.4894 106.385C39.7735 106.315 39.1066 105.99 38.61 105.47C37.0414 103.842 35.8971 101.853 35.2781 99.6782C34.659 97.5037 34.5841 95.2103 35.06 93C35.65 90.52 36.93 88.26 37.81 85.86C38.69 83.46 39.13 80.72 38.04 78.41C42.15 82.26 45.87 86.85 47.17 92.33C48.31 97.1 47.14 102.7 42.51 105.85Z" fill="#F9F6F3"/>
    <path d="M31.27 108.68C31.27 108.68 38.68 112.68 41 124.46" stroke="#08151C" stroke-linecap="round" stroke-linejoin="round"/>
    <path d="M52.62 124.46C46.9023 127.341 42.2125 131.916 39.19 137.56" stroke="#08151C" stroke-linecap="round" stroke-linejoin="round"/>
    <path d="M40.58 106.75C40.58 106.75 35.32 93.5499 40.58 93.7499C45.84 93.9499 40.58 106.75 40.58 106.75Z" stroke="#08151C" stroke-linecap="round" stroke-linejoin="round"/>
    <path d="M19.08 79.5599L25.77 80.1899" stroke="#08151C" stroke-linecap="round" stroke-linejoin="round"/>
    <path d="M22.61 75.83C22.37 78.81 22.1367 81.81 21.91 84.83" stroke="#08151C" stroke-linecap="round" stroke-linejoin="round"/>
    <path d="M25.38 86.41L29.75 86.73" stroke="#08151C" stroke-linecap="round" stroke-linejoin="round"/>
    <path d="M27.68 83.59L27.56 89.59" stroke="#08151C" stroke-linecap="round" stroke-linejoin="round"/>
    <path d="M52.88 76.9999C55.4897 77.8856 58.2534 78.2259 61 77.9999" stroke="#08151C" stroke-linecap="round" stroke-linejoin="round"/>
    <path d="M57.16 73.29L56.71 83.46" stroke="#08151C" stroke-linecap="round" stroke-linejoin="round"/>
    <path d="M60.4 85.48L64.73 85.58" stroke="#08151C" stroke-linecap="round" stroke-linejoin="round"/>
    <path d="M62 82.0699C62.4832 84.292 62.6482 86.5715 62.49 88.8399" stroke="#08151C" stroke-linecap="round" stroke-linejoin="round"/>
    <path d="M16.94 127.84L24.44 128.24" stroke="#08151C" stroke-linecap="round" stroke-linejoin="round"/>
    <path d="M19.94 124.64L20.54 131.91" stroke="#08151C" stroke-linecap="round" stroke-linejoin="round"/>
    <path d="M12.56 137.7L18.5 137.6" stroke="#08151C" stroke-linecap="round" stroke-linejoin="round"/>
    <path d="M15.13 134.68C15.31 136.74 15.5 138.79 15.68 140.85" stroke="#08151C" stroke-linecap="round" stroke-linejoin="round"/>
    <path d="M62.43 140.72L67.17 141.25" stroke="#08151C" stroke-linecap="round" stroke-linejoin="round"/>
    <path d="M64.73 137.81C64.81 140.01 64.8833 142.21 64.95 144.41" stroke="#08151C" stroke-linecap="round" stroke-linejoin="round"/>
</svg>
