<svg width="63" height="129" viewBox="0 0 63 129" fill="none" xmlns="http://www.w3.org/2000/svg">
    <path d="M62.93 0.329956H0.220001C0.220001 63.86 10.71 107.33 10.71 107.33L31.19 108.05H31.58H31.96L52.44 107.33C52.44 107.33 62.93 63.86 62.93 0.329956Z" fill="#F9F6F3"/>
    <mask id="mask0_18_240" style="mask-type:luminance" maskUnits="userSpaceOnUse" x="0" y="0" width="63" height="109">
        <path d="M62.93 0.329956H0.220001C0.220001 63.86 10.71 107.33 10.71 107.33L31.19 108.05H31.58H31.96L52.44 107.33C52.44 107.33 62.93 63.86 62.93 0.329956Z" fill="white"/>
    </mask>
    <g mask="url(#mask0_18_240)">
        <path d="M6.18 95.55C6.69462 92.8757 8.09568 90.4529 10.1569 88.6729C12.2181 86.8929 14.8192 85.8596 17.54 85.74C20.66 85.68 23.77 86.87 26.87 86.41C30.17 85.93 32.87 83.66 35.15 81.19C37.43 78.72 39.33 75.94 41.96 73.9C45.3115 71.3191 49.5198 70.1106 53.73 70.52C57.73 70.94 61.86 73.14 63.48 76.87C65.1 80.6 63.39 85.72 59.48 86.87C57 87.62 54.33 86.73 51.75 86.87C44.2 87.41 39.23 96.72 31.67 96.56C28.84 96.51 26.25 95.09 23.61 94.09C20.97 93.09 17.83 92.52 15.45 94.09C14.1663 95.123 13.038 96.3354 12.1 97.69C11.03 98.93 9.54001 100.06 7.91001 99.9C6.28001 99.74 5.8 97.87 6.18 95.55Z" fill="#FF88B9"/>
        <path d="M-2.45 45.59C-1.17028 42.7053 0.436945 39.9774 2.34 37.46C4.26602 34.9246 7.01227 33.1362 10.11 32.4C12.53 31.93 15.11 32.35 17.47 31.81C22.95 30.58 26.7 24.72 32.29 24.19C36.63 23.77 40.52 26.73 43.61 29.8C46.7 32.87 49.75 36.38 53.94 37.55C59.27 39.03 65.16 36.07 68.22 31.46C71.28 26.85 71.9 20.98 71.22 15.46C70.57 10.14 68.54 4.65001 64.22 1.53001C60.04 -1.46999 54.55 -1.75999 49.4 -1.79999C34.33 -1.90999 19.28 -0.899988 4.24 0.100012C2.55669 0.0739254 0.887933 0.415184 -0.649998 1.10001C-2.89 2.32001 -4.06 4.83001 -4.91 7.23001C-8.86 18.48 -8.66 31 -2.45 45.59Z" fill="#FF88B9"/>
    </g>
    <path d="M30.08 34.4099C27.84 32.8099 24.56 34.0499 22.79 36.1499C21.02 38.2499 20.25 40.9999 19 43.4499C17.28 46.8499 14.62 49.7799 13.44 53.4499C12.5024 56.3527 12.5896 59.4894 13.6871 62.3357C14.7845 65.182 16.8256 67.5653 19.4693 69.0873C22.1129 70.6094 25.1989 71.1779 28.2114 70.6978C31.2239 70.2178 33.9803 68.7182 36.02 66.4499C38.15 64.0799 39.45 60.9199 42.02 59.0699C43.48 58.0699 45.25 57.4799 46.71 56.4199C51.12 53.2199 51.03 46.0699 47.59 41.8399C44.15 37.6099 37 39.3799 30.08 34.4099Z" fill="#FF88B9"/>
    <path d="M52.77 107.36H10.71V128.82H52.77V107.36Z" fill="#5595CF"/>
    <path d="M25.71 55.29C24.8922 56.4926 23.7905 57.4752 22.5026 58.1507C21.2146 58.8263 19.78 59.174 18.3256 59.1631C16.8713 59.1522 15.442 58.7831 14.1643 58.0884C12.8866 57.3936 11.7998 56.3947 11 55.18C10.08 53.8 9.73 51.61 11.14 50.73C11.96 50.22 13.21 50.27 13.65 49.41C13.98 48.74 13.58 47.9599 13.41 47.2399C13.3249 46.7549 13.342 46.2574 13.4601 45.7793C13.5782 45.3012 13.7947 44.853 14.0959 44.4634C14.3971 44.0738 14.7762 43.7513 15.2091 43.5165C15.642 43.2817 16.1192 43.1398 16.61 43.0999C17.61 43.0999 18.61 43.4699 19.55 43.0999C20.22 42.7899 20.62 42.0999 21.15 41.5899C21.9616 40.9365 22.9799 40.5945 24.0214 40.6257C25.0629 40.6568 26.059 41.0591 26.83 41.76C27.5676 42.4922 28.1305 43.3815 28.4767 44.3614C28.823 45.3414 28.9438 46.3868 28.83 47.4199C28.75 49.4399 28.25 51.6 25.71 55.29Z" fill="#5595CF"/>
    <path d="M17 54.0499C17.7653 55.1524 18.8339 56.0094 20.0763 56.517C21.3187 57.0246 22.6816 57.1611 24 56.9099" stroke="#08151C" stroke-linecap="round" stroke-linejoin="round"/>
    <path d="M20.5 49.7399C22.564 51.5546 24.0925 53.8992 24.92 56.5199" stroke="#08151C" stroke-linecap="round" stroke-linejoin="round"/>
    <path d="M24.33 47.1699C25.231 48.3682 25.7725 49.7981 25.8911 51.2926C26.0097 52.7871 25.7007 54.2845 25 55.6099C29.561 58.7923 32.7143 63.6154 33.8 69.0699" stroke="#08151C" stroke-linecap="round" stroke-linejoin="round"/>
    <path d="M32.67 65.1C32.2993 59.5975 34.0936 54.168 37.67 49.97" stroke="#08151C" stroke-linecap="round" stroke-linejoin="round"/>
    <path d="M41.24 50.8099C39.849 50.6909 38.5012 50.2673 37.2921 49.5693C36.0831 48.8713 35.0423 47.9159 34.2436 46.7709C33.4449 45.6258 32.9079 44.3191 32.6705 42.9433C32.4331 41.5676 32.5012 40.1564 32.87 38.8099C33.1732 37.5299 33.8732 36.3784 34.87 35.5199C35.3811 35.105 35.9958 34.8373 36.6477 34.7457C37.2997 34.6541 37.9643 34.742 38.57 34.9999C39.57 35.4699 40.26 36.4899 41.31 36.7899C43.01 37.2799 44.92 35.7299 46.51 36.4999C48.28 37.3599 47.89 40.0899 49.14 41.6099C49.8507 42.2536 50.6096 42.842 51.41 43.3699C52.0744 44.0407 52.5147 44.9007 52.6705 45.8318C52.8263 46.7629 52.6899 47.7195 52.28 48.5699C51.8487 49.3904 51.2413 50.1055 50.5014 50.6638C49.7615 51.2222 48.9073 51.6102 48 51.7999C46.11 52.1999 44.36 51.0699 41.24 50.8099Z" fill="#5595CF"/>
    <path d="M37.71 49.9999C36.26 47.2699 35.71 42.8099 37.98 40.7499" stroke="#08151C" stroke-linecap="round" stroke-linejoin="round"/>
    <path d="M42.71 43.4999C41.5285 44.1472 40.5295 45.0823 39.8057 46.2186C39.082 47.3549 38.657 48.6555 38.57 49.9999C40.1755 50.1346 41.7895 49.8741 43.2712 49.2414C44.7528 48.6086 46.0571 47.6228 47.07 46.3699" stroke="#08151C" stroke-linecap="round" stroke-linejoin="round"/>
    <path d="M11.62 125.8H51.86" stroke="#08151C" stroke-linecap="round" stroke-linejoin="round"/>
    <path d="M2.47 7.45996H61.21" stroke="#08151C" stroke-linecap="round" stroke-linejoin="round"/>
    <path d="M4.34 1.83997V7.45996" stroke="#08151C" stroke-linecap="round" stroke-linejoin="round"/>
    <path d="M8.92 1.83997V7.45996" stroke="#08151C" stroke-linecap="round" stroke-linejoin="round"/>
    <path d="M13.5 1.83997V7.45996" stroke="#08151C" stroke-linecap="round" stroke-linejoin="round"/>
    <path d="M18.09 1.83997V7.45996" stroke="#08151C" stroke-linecap="round" stroke-linejoin="round"/>
    <path d="M22.67 1.83997V7.45996" stroke="#08151C" stroke-linecap="round" stroke-linejoin="round"/>
    <path d="M27.25 1.83997V7.45996" stroke="#08151C" stroke-linecap="round" stroke-linejoin="round"/>
    <path d="M31.84 1.83997V7.45996" stroke="#08151C" stroke-linecap="round" stroke-linejoin="round"/>
    <path d="M36.42 1.83997V7.45996" stroke="#08151C" stroke-linecap="round" stroke-linejoin="round"/>
    <path d="M41 1.83997V7.45996" stroke="#08151C" stroke-linecap="round" stroke-linejoin="round"/>
    <path d="M45.58 1.83997V7.45996" stroke="#08151C" stroke-linecap="round" stroke-linejoin="round"/>
    <path d="M50.17 1.83997V7.45996" stroke="#08151C" stroke-linecap="round" stroke-linejoin="round"/>
    <path d="M54.75 1.83997V7.45996" stroke="#08151C" stroke-linecap="round" stroke-linejoin="round"/>
    <path d="M59.33 1.83997V7.45996" stroke="#08151C" stroke-linecap="round" stroke-linejoin="round"/>
</svg>
