<svg width="105" height="187" viewBox="0 0 105 187" fill="none" xmlns="http://www.w3.org/2000/svg">
    <path d="M73.56 21.1H32.2V39.73H73.56V21.1Z" fill="#EDBB61"/>
    <path d="M61.64 0.450012H44.12V24.01H61.64V0.450012Z" fill="#EDBB61"/>
    <path d="M73.93 38H31.83C29.5624 38 27.3877 38.9008 25.7842 40.5042C24.1808 42.1077 23.28 44.2824 23.28 46.55C23.2787 47.6736 23.4989 48.7865 23.928 49.825C24.3571 50.8635 24.9866 51.8072 25.7807 52.6022C26.5748 53.3972 27.5178 54.0279 28.5558 54.4582C29.5937 54.8885 30.7064 55.11 31.83 55.11H73.93C76.2003 55.11 78.3775 54.2081 79.9828 52.6028C81.5882 50.9975 82.49 48.8203 82.49 46.55C82.4874 44.2815 81.5843 42.1068 79.9793 40.5036C78.3743 38.9005 76.1985 38 73.93 38Z" fill="#DD598D"/>
    <path d="M94.93 55.11H10.23C4.8618 55.11 0.51001 59.4618 0.51001 64.83V176.99C0.51001 182.358 4.8618 186.71 10.23 186.71H94.93C100.298 186.71 104.65 182.358 104.65 176.99V64.83C104.65 59.4618 100.298 55.11 94.93 55.11Z" fill="#3E6D52"/>
    <path d="M94.13 79.35H11.02V162.46H94.13V79.35Z" fill="#EDBB61"/>
    <path d="M43.13 102.76C41.3286 103.085 39.6651 103.94 38.3523 105.215C37.0394 106.491 36.1368 108.129 35.76 109.92C39.76 110.11 43.72 107.32 43.13 102.76Z" fill="#3E6D52"/>
    <path d="M44.46 102.5C43.6576 101.894 42.9885 101.129 42.4947 100.254C42.0008 99.3778 41.6926 98.4097 41.5894 97.4095C41.4862 96.4093 41.5902 95.3986 41.8948 94.4404C42.1994 93.4822 42.6982 92.597 43.36 91.84C44.217 92.3735 44.9525 93.0808 45.5192 93.9162C46.0859 94.7516 46.4711 95.6965 46.65 96.69C46.8385 97.7658 46.7348 98.8725 46.3495 99.8945C45.9643 100.917 45.3117 101.816 44.46 102.5Z" fill="#3E6D52"/>
    <path d="M38.92 101.12C37.992 100.765 36.9979 100.615 36.0063 100.681C35.0148 100.747 34.0493 101.027 33.1766 101.502C32.3039 101.978 31.5447 102.637 30.9514 103.434C30.3581 104.231 29.9448 105.148 29.74 106.12C33.12 106.11 36.4 104.12 38.92 101.12Z" fill="#3E6D52"/>
    <path d="M38.26 100.54C36.7977 99.7974 35.6294 98.5822 34.9449 97.0917C34.2605 95.6012 34.1002 93.9231 34.49 92.33C38 93.21 40.23 97.25 38.26 100.54Z" fill="#3E6D52"/>
    <path d="M37.62 101.32C35.598 101.712 33.5061 101.512 31.5943 100.746C29.6826 99.9801 28.032 98.6795 26.84 97C30.4 96.05 34.46 97.1 37.62 101.32Z" fill="#3E6D52"/>
    <path d="M51.14 113.14C48.6136 112.235 45.9126 111.926 43.247 112.235C40.5814 112.544 38.023 113.464 35.7708 114.923C33.5185 116.382 31.6331 118.341 30.2611 120.647C28.8891 122.953 28.0674 125.545 27.86 128.22C27.58 131.9 28.6 135.83 31.27 138.37C34.27 141.26 38.76 141.89 42.91 142.37L57.18 144.05C61.62 144.57 66.41 145.05 70.32 142.85C74.73 140.39 76.9 134.85 76.08 129.85C75.26 124.85 71.81 120.57 67.52 117.91C63.23 115.25 57.79 115.53 51.14 113.14Z" fill="#DA682E"/>
    <path d="M52.34 117.78C52.344 115.06 52.9642 112.377 54.1541 109.931C55.344 107.486 57.0726 105.342 59.21 103.66" stroke="#08151C" stroke-linecap="round" stroke-linejoin="round"/>
    <path d="M53.67 110.89C52.2517 107.697 49.7465 105.11 46.6 103.59C43.4758 102.096 40.1865 100.975 36.8 100.25" stroke="#08151C" stroke-linecap="round" stroke-linejoin="round"/>
    <path d="M48.37 117.78C49.6127 118.158 50.9247 118.25 52.208 118.049C53.4912 117.848 54.7124 117.36 55.78 116.62" stroke="#08151C" stroke-linecap="round" stroke-linejoin="round"/>
    <path d="M45.42 20.98H60.34" stroke="#08151C" stroke-linecap="round" stroke-linejoin="round"/>
    <path d="M52.88 10.42C53.098 10.42 53.3139 10.3771 53.5153 10.2937C53.7167 10.2102 53.8996 10.088 54.0538 9.93381C54.2079 9.77967 54.3302 9.59667 54.4136 9.39527C54.4971 9.19387 54.54 8.97801 54.54 8.76002V6.50002C54.5413 6.28118 54.4994 6.06425 54.4165 5.86169C54.3337 5.65914 54.2116 5.47496 54.0574 5.31975C53.9031 5.16454 53.7196 5.04137 53.5176 4.95733C53.3155 4.87328 53.0988 4.83001 52.88 4.83002C52.4388 4.83266 52.0166 5.00977 51.7056 5.32267C51.3946 5.63557 51.22 6.05883 51.22 6.50002V8.76002C51.2226 9.19947 51.3984 9.62017 51.7091 9.93091C52.0198 10.2417 52.4405 10.4174 52.88 10.42Z" stroke="#08151C" stroke-linecap="round" stroke-linejoin="round"/>
    <path d="M35.6 126.79C35.8316 125.969 36.3473 125.257 37.0553 124.78C37.7632 124.304 38.6173 124.095 39.4652 124.189C40.3132 124.284 41.0998 124.677 41.685 125.298C42.2701 125.919 42.6157 126.728 42.66 127.58" stroke="#08151C" stroke-linecap="round" stroke-linejoin="round"/>
    <path d="M60.48 129.77C60.7322 128.959 61.2671 128.265 61.9875 127.814C62.7079 127.363 63.566 127.186 64.406 127.314C65.246 127.443 66.0121 127.868 66.5651 128.513C67.1182 129.158 67.4215 129.98 67.42 130.83" stroke="#08151C" stroke-linecap="round" stroke-linejoin="round"/>
    <path d="M47 130.83C47.7084 131.887 48.7982 132.629 50.0413 132.902C51.2845 133.174 52.5847 132.955 53.67 132.29" stroke="#08151C" stroke-linecap="round" stroke-linejoin="round"/>
</svg>
